<svg id="Layer_1" data-name="Layer 1" xmlns="http://www.w3.org/2000/svg" viewBox="0 0 29 29"><defs><style>.cls-1{fill:#f8f9fa;}</style></defs><title>close-icon</title><path class="cls-1" d="M5.74,5.74h0a.81.81,0,0,0,0,1.14L18.29,19.43a.81.81,0,0,1,0,1.14L5.74,33.12a.81.81,0,0,0,0,1.14h0a.81.81,0,0,0,1.14,0L19.43,21.71a.81.81,0,0,1,1.14,0L33.12,34.26a.81.81,0,0,0,1.14,0h0a.81.81,0,0,0,0-1.14L21.71,20.57a.81.81,0,0,1,0-1.14L34.26,6.88a.81.81,0,0,0,0-1.14h0a.81.81,0,0,0-1.14,0L20.57,18.29a.81.81,0,0,1-1.14,0L6.88,5.74A.81.81,0,0,0,5.74,5.74Z" transform="translate(-5.5 -5.5)"/></svg>