<svg width="466" height="468" viewBox="0 0 466 468" fill="none" xmlns="http://www.w3.org/2000/svg">
<g opacity="0.5">
<path d="M147.115 16.6396C205.714 -6.71611 273.973 -5.10055 331.009 22.0264C314.757 19.5572 298.225 21.4187 282.137 24.1387C238.445 32.3901 196.922 52.9487 164.467 83.4899C133.347 114.079 111.539 154.666 105.381 198.089C101.305 228.856 105.082 261.129 118.889 289.134C133.115 318.518 158.159 342.616 188.343 355.053C217.428 367.361 251.167 367.225 280.628 356.24C324.831 340.017 356.593 296.213 360.224 249.415C362.51 218.744 355.049 186.114 334.443 162.59C314.771 139.562 286 126.879 257.209 119.659C255.666 91.2639 269.044 63.2111 290.258 44.7455C302.04 34.1214 316.662 27.3505 331.781 23.015L332.928 22.6195C376.211 43.3759 412.988 77.6064 436.421 119.63C456.497 155.409 466.967 196.637 465.93 237.706C465.732 290.812 445.882 343.392 411.854 383.998C379.678 422.724 334.674 450.579 285.624 461.733C236.443 473.081 183.53 468.186 137.504 447.285C92.4657 427.17 54.3096 392.202 30.0376 349.189C9.84554 313.444 -0.836435 272.231 0.0509166 231.113C0.147369 179.883 18.3381 129.049 50.0995 88.9877C75.471 56.9996 109.128 31.5654 147.115 16.6396Z" fill="#E9ECEF"/>
</g>
</svg>
