<svg id="Layer_1" data-name="Layer 1" xmlns="http://www.w3.org/2000/svg" viewBox="0 0 208 278.24"><defs><style>.cls-1{fill:#aa0009;}</style></defs><title>Vodafone_icon_loading</title><path class="cls-1" d="M229.43,53.52c13-2.2,26.42-3.71,39.59-1.71l1.89.32-1.27.48c-12.25,3.51-24.09,9-33.63,17.6-17.18,15-28,37.68-26.77,60.68,23.32,5.85,46.63,16.12,62.56,34.77,16.69,19.05,22.73,45.48,20.88,70.33-2.94,37.91-28.67,73.39-64.47,86.53-23.86,8.9-51.19,9-74.75-1A109.89,109.89,0,0,1,97.2,268.17C86,245.48,83,219.34,86.26,194.42c5-35.17,22.65-68,47.86-92.82C160.4,76.86,194,60.21,229.43,53.52Z" transform="translate(-85 -50.88)"/></svg>