<svg version="1.1" id="Layer_1" xmlns="http://www.w3.org/2000/svg" xmlns:xlink="http://www.w3.org/1999/xlink" x="0px" y="0px"
	 viewBox="0 0 378 380" style="enable-background:new 0 0 378 380;" xml:space="preserve">
<style type="text/css">
	.st0{fill:#F8F9FA;}
</style>
<g id="surface1">
	<path class="st0" d="M119.4,14.3c47.5-18.9,102.8-17.6,149,4.4c-13.2-2-26.6-0.5-39.6,1.7c-35.4,6.7-69,23.3-95.3,48.1
		c-25.2,24.8-42.9,57.7-47.9,92.8c-3.3,24.9-0.2,51.1,10.9,73.7c11.5,23.8,31.8,43.3,56.3,53.4c23.6,10,50.9,9.9,74.8,1
		c35.8-13.1,61.5-48.6,64.5-86.5c1.9-24.8-4.2-51.3-20.9-70.3c-15.9-18.7-39.2-28.9-62.6-34.8c-1.3-23,9.6-45.7,26.8-60.7
		c9.5-8.6,21.4-14.1,33.6-17.6l0.9-0.3C305,36,334.8,63.7,353.8,97.8c16.3,29,24.7,62.4,23.9,95.6c-0.2,43-16.2,85.6-43.8,118.5
		c-26.1,31.4-62.5,53.9-102.2,63c-39.8,9.2-82.7,5.2-120-11.7c-36.5-16.3-67.4-44.6-87-79.5c-16.4-29-25-62.3-24.3-95.6
		c0.1-41.5,14.8-82.7,40.5-115.1C61.4,47,88.7,26.4,119.4,14.3z"/>
</g>
</svg>
